# xmcd
#
# Track frame offsets:
#	150
#	12015
#	22812
#	32253
#	46650
#	60235
#	72144
#	89766
#	101890
#	116365
#	126342
#	139294
#	150266
#	161524
#	175390
#
# Disc length: 2535 seconds
#
# Revision: 1
# Processed by: cddbd v1.4PL0 Copyright (c) Steve Scherf et al.
# Submitted via: audiograbber 1.80.04
#
DISCID=b209e50f
DTITLE=Fausto Papetti - El Estilo de Fausto Papetti
DYEAR=1997
DGENRE=Latino
TTITLE0=Atada a un granito de arena
TTITLE1=Las hojas verdes del verano
TTITLE2=Viento Calido
TTITLE3=La muchacha de la valija
TTITLE4=Pequeña flor
TTITLE5=Extraños en la noche
TTITLE6=Historia de un amor
TTITLE7=Cuando llegue a Phoenix
TTITLE8=La Playa
TTITLE9=Cuando dormirá
TTITLE10=Georgy girl
TTITLE11=Hojas muertas
TTITLE12=Tema de Tracy
TTITLE13=Sunny
TTITLE14=Fabula de la lluvia
EXTD=
EXTT0=
EXTT1=
EXTT2=
EXTT3=
EXTT4=
EXTT5=
EXTT6=
EXTT7=
EXTT8=
EXTT9=
EXTT10=
EXTT11=
EXTT12=
EXTT13=
EXTT14=
PLAYORDER=
